<svg xmlns="http://www.w3.org/2000/svg" viewBox="0 0 283.46 283.46"><defs><style>.cls-1{fill:#3b6297;}.cls-1,.cls-2{stroke:#3b6297;stroke-width:0.5px;}.cls-1,.cls-2,.cls-5,.cls-6,.cls-8{stroke-miterlimit:10;}.cls-2{fill:#fff;}.cls-3{fill:#fdd333;}.cls-4{fill:#e6a0ac;}.cls-5,.cls-6,.cls-8{fill:none;stroke-linecap:round;}.cls-5,.cls-6{stroke:#231815;}.cls-5{stroke-width:5px;}.cls-6{stroke-width:2px;}.cls-7{fill:#cf5f6e;}.cls-8{stroke:#cf5f6e;stroke-width:9px;}</style></defs><title>GEN</title><g id="レイヤー_10" data-name="レイヤー 10"><ellipse class="cls-1" cx="142.06" cy="147.44" rx="128.79" ry="105.21"/><ellipse class="cls-2" cx="141.89" cy="160.67" rx="94.7" ry="75.53"/><ellipse class="cls-3" cx="143.06" cy="172.56" rx="19.85" ry="23.92"/><ellipse class="cls-4" cx="213.8" cy="165.69" rx="18.25" ry="11.89"/><ellipse class="cls-4" cx="77.15" cy="165.69" rx="18.25" ry="11.89"/><path class="cls-5" d="M81.37,153.69c2.91-6.93,9.12-12.27,16.95-12.33,7.48-.07,14.19,4.55,17,12.33"/><path class="cls-5" d="M175.09,153.6c2.91-6.92,9.12-12.27,16.95-12.33,7.48-.06,14.19,4.55,17,12.33"/><path class="cls-6" d="M123.82,172.6c12.81-.09,27.11.29,39.37-.08"/><ellipse class="cls-7" cx="72.31" cy="85.14" rx="70.68" ry="37.93" transform="translate(-38.03 67.73) rotate(-40.69)"/><line class="cls-8" x1="34.12" y1="45.82" x2="52.72" y2="63.18"/></g></svg>