<svg xmlns="http://www.w3.org/2000/svg" viewBox="0 0 283.46 283.46"><defs><style>.cls-1{fill:#cf5f6e;}.cls-2{fill:none;stroke:#cf5f6e;stroke-linecap:round;stroke-width:9.6px;}.cls-2,.cls-3{stroke-miterlimit:10;}.cls-3{font-size:24.43px;stroke:#fff;stroke-width:0.96px;font-family:HiraMaruProN-W4-83pv-RKSJ-H, Hiragino Maru Gothic ProN;}.cls-3,.cls-4{fill:#fff;}</style></defs><title>alter</title><g id="レイヤー_13" data-name="レイヤー 13"><rect class="cls-1" x="51.99" y="95.39" width="174.72" height="78.49" rx="4.59"/><rect class="cls-2" x="51.99" y="95.39" width="174.72" height="78.49" rx="4.59"/><text class="cls-3" transform="translate(95.94 144.06)">見せ場あり</text><path class="cls-4" d="M74.41,110.92c-9.56,8.62-16.35,18.81-16.35,25.59,0,10.6,6.73,18,16.35,18s16.36-7.41,16.36-18C90.77,129.7,83.94,119.51,74.41,110.92Zm0,38.15A7.77,7.77,0,0,1,66.24,141c0-1.15.39-5.24,8.17-13.73,7.79,8.49,8.18,12.58,8.18,13.73A7.77,7.77,0,0,1,74.41,149.07Z"/></g></svg>