<svg xmlns="http://www.w3.org/2000/svg" viewBox="0 0 283.46 283.46"><defs><style>.cls-1{fill:#fff;}.cls-1,.cls-5{stroke:#231815;stroke-width:4px;}.cls-1,.cls-2,.cls-5{stroke-miterlimit:10;}.cls-2,.cls-5{fill:none;stroke-linecap:round;}.cls-2{stroke:#fdd333;stroke-width:9.44px;}.cls-3{fill:#231815;}.cls-4{fill:#cf5f6e;}</style></defs><title>merit1</title><g id="レイヤー_7" data-name="レイヤー 7"><path class="cls-1" d="M219.4,195.37c0,16.57-34.77,33-77.67,33s-77.66-16.43-77.66-33,34.77-30,77.66-30S219.4,178.8,219.4,195.37Z"/><path class="cls-2" d="M141.69,225.47c-.19-3.38,0-15-.42-27.33"/><path class="cls-2" d="M99.69,188.61A28.6,28.6,0,0,0,87.52,190a25.81,25.81,0,0,0-13.75,14,19.6,19.6,0,0,1-1.88,3.53,2.18,2.18,0,0,1,.14.34"/><path class="cls-2" d="M212.06,208.67c.13-8.54-3.88-16.41-10.58-20.33a23,23,0,0,0-16-2.48"/><ellipse class="cls-3" cx="141.73" cy="186.33" rx="44.06" ry="11.79"/><path class="cls-4" d="M141.73,125.91l60-28.6c4.43-2.11,4.57-5.84.32-8.28L149.45,58.81c-4.26-2.45-7.74-.43-7.74,4.48V190.48"/><path class="cls-5" d="M141.73,125.91l60-28.6c4.43-2.11,4.57-5.84.32-8.28L149.45,58.81c-4.26-2.45-7.74-.43-7.74,4.48V190.48"/></g></svg>