<svg id="_1" data-name="1" xmlns="http://www.w3.org/2000/svg" viewBox="0 0 283.46 283.46"><defs><style>.cls-1{fill:#fff;}.cls-2,.cls-3,.cls-4,.cls-5,.cls-6{fill:none;stroke-linecap:round;stroke-miterlimit:10;}.cls-2{stroke:#231815;stroke-width:2.02px;}.cls-3,.cls-4,.cls-5,.cls-6{stroke:#3b6297;}.cls-3{stroke-width:1.98px;}.cls-4{stroke-width:1.9px;}.cls-5{stroke-width:1.93px;}.cls-6{stroke-width:1.97px;}</style></defs><title>GEN</title><rect class="cls-1" x="85.42" y="66.31" width="143.14" height="176.77" rx="1.43"/><rect class="cls-2" x="85.42" y="66.31" width="143.14" height="176.77" rx="1.43"/><rect class="cls-1" x="70.49" y="53.35" width="143.14" height="176.77" rx="1.43"/><rect class="cls-2" x="70.49" y="53.35" width="143.14" height="176.77" rx="1.43"/><rect class="cls-1" x="56.99" y="39.76" width="143.14" height="176.77" rx="1.43"/><rect class="cls-2" x="56.99" y="39.76" width="143.14" height="176.77" rx="1.43"/><rect class="cls-1" x="74.99" y="57.85" width="106.68" height="52.05" rx="1.39"/><rect class="cls-3" x="74.99" y="57.85" width="106.68" height="52.05" rx="1.39"/><rect class="cls-1" x="104.48" y="119.39" width="77.19" height="39.95" rx="1.33"/><rect class="cls-4" x="104.48" y="119.39" width="77.19" height="39.95" rx="1.33"/><rect class="cls-1" x="74.99" y="119.39" width="22.82" height="39.95" rx="1.35"/><rect class="cls-5" x="74.99" y="119.39" width="22.82" height="39.95" rx="1.35"/><rect class="cls-1" x="74.99" y="166.34" width="106.68" height="36.76" rx="1.49"/><rect class="cls-6" x="74.99" y="166.34" width="106.68" height="36.76" rx="1.49"/></svg>