<svg xmlns="http://www.w3.org/2000/svg" viewBox="0 0 283.46 283.46"><defs><style>.cls-1,.cls-11,.cls-14,.cls-17,.cls-4,.cls-8{fill:none;}.cls-1{stroke:#afafaf;}.cls-1,.cls-11,.cls-12,.cls-14,.cls-17,.cls-4,.cls-8{stroke-linecap:round;}.cls-1,.cls-11,.cls-12,.cls-14,.cls-15,.cls-16,.cls-17,.cls-4,.cls-7,.cls-8{stroke-miterlimit:10;}.cls-1,.cls-14,.cls-17{stroke-width:2px;}.cls-15,.cls-2{fill:#cf5f6e;}.cls-3{fill:#afafaf;}.cls-11,.cls-17,.cls-4{stroke:#231815;}.cls-15,.cls-16,.cls-4{stroke-width:0.5px;}.cls-12,.cls-5{fill:#231815;}.cls-6{fill:#3b6297;}.cls-13,.cls-16,.cls-7{fill:#fff;}.cls-12,.cls-7{stroke:#3b6297;}.cls-14,.cls-15,.cls-8{stroke:#cf5f6e;}.cls-12,.cls-8{stroke-width:5px;}.cls-9{fill:#fdd333;}.cls-10{fill:#e6a0ac;}.cls-15{font-size:12.25px;}.cls-15,.cls-16{font-family:HiraMaruProN-W4-83pv-RKSJ-H, Hiragino Maru Gothic ProN;}.cls-16{font-size:12.72px;stroke:#fff;}</style></defs><title>GEN</title><g id="レイヤー_8" data-name="レイヤー 8"><line class="cls-1" x1="245.08" y1="192.86" x2="239.52" y2="199.23"/><path class="cls-2" d="M225.69,218a3.9,3.9,0,0,1-1.15-.83l-1.67-1.74a5,5,0,0,1-.89-1.41.9.9,0,0,1,.28-.86l15.35-16.74a4.07,4.07,0,0,1,1.14-.87c.31-.13,1.26.5,1.58.83l2.26,2.36a.87.87,0,0,1,.3.85,5.09,5.09,0,0,1-.86,1.43l-14.77,16.12C226.94,217.51,226,218.15,225.69,218Z"/><path class="cls-3" d="M248.26,196a14.49,14.49,0,0,0,3.14-4,13.8,13.8,0,0,0,1.06-3.42c.29-1.63.39-2.71.06-3.37a5.74,5.74,0,0,0-3.21-.15,11.81,11.81,0,0,0-2.89.79,11,11,0,0,0-4.07,2.9c-1.54,1.77-2.16,4.63-.5,6.72A4.41,4.41,0,0,0,248.26,196Z"/><path class="cls-4" d="M252.35,185.43c-1.48,1.39-3.38,3.24-3.38,3.24"/><circle class="cls-5" cx="249.05" cy="188.67" r="0.63"/><ellipse class="cls-6" cx="173" cy="178.02" rx="56.68" ry="49.85" transform="translate(-15.04 15.97) rotate(-5.07)"/><path class="cls-6" d="M222.57,234.82l-85.63.32.11-.34a27.56,27.56,0,0,1,8.84-17c16-15,38.23-18.78,55.08-10C216.14,215.73,221.36,231,222.57,234.82Z"/><path class="cls-6" d="M222.57,232.32l-85.63.32,2.41,3.17c1.49-4.31,1.94-8.34,4.71-12.23,3.29-4.59,8.26-8.23,13.08-11.06a47.67,47.67,0,0,1,28.64-6.63c16.66,1.67,29.46,14,34.38,29.6,1,3.06,5.79,1.75,4.82-1.33-5.63-17.83-20.23-31.44-39.2-33.27-11.31-1.09-22.89,2.12-32.47,8.1a48.19,48.19,0,0,0-12.66,10.87c-3.59,4.64-4.28,9.29-6.12,14.62a2.51,2.51,0,0,0,2.41,3.16l85.63-.32C225.78,237.31,225.79,232.31,222.57,232.32Z"/><path class="cls-6" d="M222.57,234.82a11.9,11.9,0,0,0-4-6.75Z"/><path class="cls-6" d="M225,234.16a14.64,14.64,0,0,0-4.63-7.86,2.54,2.54,0,0,0-3.29-.19,2.49,2.49,0,0,0-.64,3.22l4,6.75c1.63,2.77,6,.26,4.32-2.52l-4-6.75-3.93,3a10.07,10.07,0,0,1,3.35,5.65C221,238.6,225.77,237.28,225,234.16Z"/><path class="cls-6" d="M222.77,226.4c10.13-11.7,9.57-14.79,8.84-15.78-2.31-3.11-15.09,2.44-22.07,5.47A131.23,131.23,0,0,0,189,227.33l26.44,6.93Z"/><path class="cls-6" d="M224.54,228.17c2.54-3,16.88-18.73,5.82-20.84-6-1.15-13.44,2.92-18.78,5.18a146.23,146.23,0,0,0-23.88,12.66,2.53,2.53,0,0,0,.6,4.57l26.44,6.93a2.51,2.51,0,0,0,2.43-.64l7.37-7.86c2.2-2.35-1.33-5.89-3.54-3.54l-7.37,7.86,2.44-.64-26.44-6.93.59,4.57a130.1,130.1,0,0,1,32.77-16c1.18-.37,5.2-2,6.41-1.36.13.07,0-.73-.07.42-.37,4.12-5.92,9.28-8.33,12.1C218.92,227.06,222.44,230.62,224.54,228.17Z"/><ellipse class="cls-7" cx="175.08" cy="182.15" rx="42.24" ry="34.21" transform="translate(-15.4 16.17) rotate(-5.07)"/><ellipse class="cls-2" cx="137.82" cy="148.47" rx="33.65" ry="18.06" transform="translate(-63.48 125.76) rotate(-40.69)"/><line class="cls-8" x1="119.64" y1="129.74" x2="128.5" y2="138.01"/><ellipse class="cls-9" cx="177.33" cy="189.75" rx="9.44" ry="11.54" transform="translate(-33.83 38.55) rotate(-11.33)"/><ellipse class="cls-10" cx="207.07" cy="177.36" rx="7.86" ry="5.21" transform="translate(-30.82 44.15) rotate(-11.33)"/><ellipse class="cls-10" cx="145.8" cy="188.05" rx="7.86" ry="5.21" transform="translate(-34.11 32.32) rotate(-11.33)"/><path class="cls-11" d="M168.08,191.61c6-.94,12.83-1.71,18.61-2.76"/><line class="cls-12" x1="45.87" y1="177.65" x2="101.04" y2="177.65"/><line class="cls-12" x1="45.87" y1="195.65" x2="101.04" y2="195.65"/><line class="cls-12" x1="45.87" y1="212.65" x2="101.04" y2="212.65"/><rect class="cls-2" x="168.08" y="60.16" width="90.97" height="40.87" rx="4.59"/><rect class="cls-8" x="168.08" y="60.16" width="90.97" height="40.87" rx="4.59"/><rect class="cls-13" x="35.87" y="60.36" width="90.97" height="41.67" rx="4.59"/><rect class="cls-14" x="35.87" y="60.36" width="90.97" height="41.67" rx="4.59"/><text class="cls-15" transform="translate(59.29 86.67)">見せ場なし</text><text class="cls-16" transform="translate(190.96 85.5)">見せ場あり</text><path class="cls-2" d="M49.05,69.36c-5,4.49-8.51,9.8-8.51,13.33,0,5.52,3.5,9.38,8.51,9.38s8.52-3.86,8.52-9.38C57.57,79.15,54,73.84,49.05,69.36Zm0,19.87A4.06,4.06,0,0,1,44.79,85c0-.59.21-2.72,4.26-7.14,4.05,4.42,4.26,6.55,4.26,7.14A4.05,4.05,0,0,1,49.05,89.23Z"/><path class="cls-13" d="M179.75,68.24c-5,4.49-8.51,9.79-8.51,13.32,0,5.52,3.5,9.38,8.51,9.38s8.52-3.86,8.52-9.38C188.27,78,184.71,72.71,179.75,68.24Zm0,19.86a4,4,0,0,1-4.25-4.2c0-.6.2-2.73,4.25-7.15,4.06,4.42,4.26,6.55,4.26,7.15A4,4,0,0,1,179.75,88.1Z"/><path class="cls-17" d="M146.58,185.36a7.91,7.91,0,0,1,5.65-6.69,7.43,7.43,0,0,1,8.11,3.31"/><path class="cls-17" d="M189.73,176.74a7.91,7.91,0,0,1,5.65-6.69,7.44,7.44,0,0,1,8.11,3.32"/></g></svg>