<svg xmlns="http://www.w3.org/2000/svg" viewBox="0 0 283.46 283.46"><defs><style>.cls-1{font-size:21px;}.cls-1,.cls-2,.cls-21,.cls-3,.cls-8{fill:#3b6297;}.cls-1,.cls-11,.cls-2,.cls-21,.cls-8{stroke:#3b6297;}.cls-1,.cls-11,.cls-14,.cls-15,.cls-16,.cls-17,.cls-19,.cls-2,.cls-20,.cls-21,.cls-5,.cls-6,.cls-8,.cls-9{stroke-miterlimit:10;}.cls-1,.cls-2,.cls-21{font-family:HiraMaruProN-W4-83pv-RKSJ-H, Hiragino Maru Gothic ProN;}.cls-2{font-size:28.3px;}.cls-4{fill:#fdd333;}.cls-10,.cls-20,.cls-5,.cls-9{fill:#fff;}.cls-15,.cls-16,.cls-17,.cls-5{stroke:#231815;}.cls-5{stroke-width:1.44px;}.cls-11,.cls-13,.cls-14,.cls-15,.cls-16,.cls-17,.cls-19,.cls-6{fill:none;}.cls-6{stroke:#fdd333;}.cls-11,.cls-14,.cls-15,.cls-16,.cls-17,.cls-20,.cls-6,.cls-8,.cls-9{stroke-linecap:round;}.cls-20,.cls-6,.cls-8,.cls-9{stroke-width:3px;}.cls-7{fill:#231815;}.cls-9{stroke:#fff;}.cls-11{stroke-width:2.61px;}.cls-12,.cls-22{fill:#cf5f6e;}.cls-14,.cls-20,.cls-22{stroke:#cf5f6e;}.cls-14,.cls-17{stroke-width:2px;}.cls-15{stroke-width:1.18px;}.cls-16{stroke-width:0.75px;}.cls-18{fill:#f2f2f2;}.cls-19{stroke:#afafaf;}.cls-20{stroke-dasharray:4 5;}.cls-21{font-size:19px;}.cls-22{font-size:24px;}</style></defs><title>GEN</title><g id="レイヤー_7" data-name="レイヤー 7"><text class="cls-1" transform="translate(125.2 73.76)">進み具合</text><text class="cls-2" transform="translate(116.5 116.93) scale(1.16 1)">60%</text><path class="cls-3" d="M99.25,68.27h2.85a1.05,1.05,0,0,0,1-1V56.85a1.05,1.05,0,0,0-1-1H99.25a1.05,1.05,0,0,0-1,1V67.28A1.05,1.05,0,0,0,99.25,68.27Zm7.12,0h2.84a1.05,1.05,0,0,0,1-1V49.41a1,1,0,0,0-1-1h-2.84a1,1,0,0,0-1,1V67.28A1,1,0,0,0,106.37,68.27ZM85,68.27h2.84a1,1,0,0,0,.95-1V61.82a1,1,0,0,0-.95-1H85a1.05,1.05,0,0,0-1,1v5.46A1.05,1.05,0,0,0,85,68.27Zm7.11,0H95a1,1,0,0,0,.94-1V51.89a1,1,0,0,0-.94-1H92.14a1.05,1.05,0,0,0-1,1V67.28A1.05,1.05,0,0,0,92.14,68.27Zm19.2,5h-32V49.66a1.21,1.21,0,0,0-1.19-1.24H75.78a1.21,1.21,0,0,0-1.18,1.24V75.71A2.43,2.43,0,0,0,77,78.19h34.37A1.21,1.21,0,0,0,112.53,77V74.47A1.22,1.22,0,0,0,111.34,73.23Z"/><ellipse class="cls-4" cx="86.56" cy="157.15" rx="10.08" ry="7.52"/><path class="cls-5" d="M262.61,161.14c0,5.27-11.05,10.49-24.67,10.49s-24.67-5.22-24.67-10.49,11-9.53,24.67-9.53S262.61,155.88,262.61,161.14Z"/><path class="cls-6" d="M238.48,164.36c-.06-1.08-.08-1.27-.14-2.35"/><path class="cls-6" d="M224.58,158.27a9,9,0,0,0-3.86.43,8.68,8.68,0,0,0-4.89,4.52,1.61,1.61,0,0,0-.08,1,.61.61,0,0,0,.05.11"/><path class="cls-6" d="M260.28,165.37a6.91,6.91,0,0,0-8.46-7.25"/><ellipse class="cls-7" cx="237.94" cy="158.27" rx="13.99" ry="3.74"/><path class="cls-8" d="M85.1,153.61c0,12.64-27.54,16.89-43,16.89s-13-4.25-13-16.89,12.53-22.9,28-22.9c2.2,0,10.84-.44,18.52,5.72C77.9,138.27,85.1,144.79,85.1,153.61Z"/><path class="cls-9" d="M77.32,136.76c-7.47-2.13-19.18,10-20.49,22.52-.65,6.18-14.12,9.73-8.43,12,6.89,2.74,32.8-.06,36-10.17C87.4,151.37,83.81,138.62,77.32,136.76Z"/><path class="cls-10" d="M214.31,172.53c-.18-1.26,10.71-6.92,21.11-4.64,4.32.94,8.73,3.3,13.16,1.2,1.37-.66,3-1.84,5.44-1.84s5,1.09,5,1.86C259,172.23,214.65,175,214.31,172.53Z"/><path class="cls-10" d="M216.72,173.19c-.28,1.05-.17.18.8-.19s1.86-.92,2.84-1.29a29,29,0,0,1,8.54-1.82c5.87-.34,11.24,3.08,17,2.44,2.2-.24,3.72-1.26,5.7-2a4.56,4.56,0,0,1,3.45-.39q2.25.88,2.22-2.43a3.93,3.93,0,0,1-.5.22c-1.69-.27-5,1.13-6.76,1.38a203.46,203.46,0,0,1-20.63,1.72c-3.08.13-6.17.22-9.25.13a28.57,28.57,0,0,0-3-.15c-1.86.18-1.45-1.48-.39,1.07-1.22-2.93-6.06-1.65-4.82,1.32,2,4.95,14.52,2.77,18.47,2.59,8.69-.39,18.2-.55,26.63-2.9,2.1-.59,5.06-1.65,4.44-4.44-1.07-4.9-9.2-3.7-12.33-2.44-5.51,2.21-9.2,0-14.67-.82a30.64,30.64,0,0,0-10.8.39c-3.26.67-10.68,2.33-11.74,6.3C211.07,175,215.89,176.3,216.72,173.19Z"/><path class="cls-11" d="M28.26,166c3.43,0,6.81,1.43,10.13,1.41s6.79-1.51,10.11-1.53,6.81,1.43,10.13,1.42,6.8-1.52,10.11-1.54,6.82,1.44,10.13,1.42,6.81-1.52,10.12-1.54,6.82,1.44,10.12,1.42c3.45,0,6.82-1.52,10.12-1.54,3.45,0,6.83,1.44,10.13,1.42,3.46,0,6.82-1.52,10.11-1.54,3.47,0,6.85,1.44,10.14,1.42,3.47,0,6.83-1.52,10.11-1.53,3.48,0,6.86,1.43,10.13,1.41,3.49,0,6.85-1.51,10.11-1.53,3.5,0,6.88,1.43,10.12,1.42,3.53,0,6.89-1.52,10.12-1.54,3.54,0,6.92,1.44,10.12,1.42,3.58,0,6.94-1.52,10.11-1.54,3.63,0,7,1.44,10.13,1.42,3.7,0,7.05-1.52,10.11-1.54,3.83,0,7.19,1.44,10.12,1.42,4.18,0,7.48-1.52,10.11-1.54C261,164.62,256,166.1,261,166.1"/><path class="cls-10" d="M27.28,167.53c.38-.85,3-.24,6.4.07,5,.47,4.59-.35,12.16-.2,5.64.11,8.52.19,11,1.47,1.64.85,3.05,2.09,5.88,4.55,3.14,2.75-11.54-2.44-11.43-1.93.6,2.83-1.5,5.49-3.62,7.46a48.45,48.45,0,0,1-10.5,7.4c-4,2.09-6.21,2.76-9.06,2.42a14,14,0,0,1-10.29-7.54c-3.18-6.39,15.77-6.17,11.42-11C28.32,169.23,27,168.2,27.28,167.53Z"/><ellipse class="cls-12" cx="41.64" cy="136.52" rx="18.06" ry="8" transform="translate(-66.36 43.21) rotate(-32.21)"/><line class="cls-13" x1="34.41" y1="125.97" x2="37.37" y2="129.75"/><line class="cls-14" x1="34" y1="127.39" x2="36.45" y2="130.71"/><path class="cls-15" d="M74.35,150.09c.17-1.32,1.65-3.33,3.58-3.33a4.26,4.26,0,0,1,3.91,3.16"/><line class="cls-16" x1="87.27" y1="157.15" x2="95.6" y2="157.15"/><path class="cls-12" d="M237.94,137.81,257,128.72c1.41-.67,1.45-1.85.1-2.63l-16.71-9.6c-1.36-.77-2.46-.13-2.46,1.43v40.4"/><path class="cls-17" d="M237.94,137.81,257,128.72c1.41-.67,1.45-1.85.1-2.63l-16.71-9.6c-1.36-.77-2.46-.13-2.46,1.43v40.4"/><rect class="cls-18" x="49.79" y="186.25" width="198.95" height="60.58" rx="10"/><rect class="cls-19" x="49.79" y="186.25" width="198.95" height="60.58" rx="10"/><line class="cls-20" x1="105.75" y1="144.04" x2="209.03" y2="144.04"/><text class="cls-21" transform="translate(64.35 223.64)">締切まであと<tspan class="cls-22" x="120" y="1.9">10</tspan><tspan x="156.04" y="0">日</tspan></text></g></svg>