<svg xmlns="http://www.w3.org/2000/svg" viewBox="0 0 283.46 283.46"><defs><style>.cls-1,.cls-13,.cls-6,.cls-8{fill:#fff;}.cls-1,.cls-2{stroke:#fdd333;stroke-width:21px;}.cls-1,.cls-11,.cls-12,.cls-13,.cls-14,.cls-2,.cls-3,.cls-5,.cls-8,.cls-9{stroke-linecap:round;stroke-miterlimit:10;}.cls-12,.cls-14,.cls-2,.cls-3,.cls-5,.cls-9{fill:none;}.cls-3,.cls-8{stroke:#999899;stroke-width:4px;}.cls-11,.cls-4{fill:#afafaf;}.cls-11,.cls-5,.cls-9{stroke:#fff;}.cls-5{stroke-width:3px;}.cls-7{fill:#231815;}.cls-14,.cls-9{stroke-width:2px;}.cls-10{fill:#cf5f6e;}.cls-11,.cls-13{stroke-width:5px;}.cls-12,.cls-14{stroke:#231815;}.cls-12{stroke-width:1.5px;}.cls-13{stroke:#afafaf;}</style></defs><title>GEN</title><g id="レイヤー_11" data-name="レイヤー 11"><line class="cls-1" x1="213.01" y1="110.99" x2="213.01" y2="85.5"/><line class="cls-1" x1="211.52" y1="111.71" x2="184.56" y2="114.39"/><path class="cls-2" d="M77.74,120c7.94-27,34.71-47.77,58.8-49,29.23-1.44,50.33,13.88,63.52,33"/><line class="cls-1" x1="71.46" y1="169.94" x2="68.73" y2="192.5"/><line class="cls-1" x1="72.35" y1="166.89" x2="100.09" y2="166.89"/><path class="cls-2" d="M200.06,182.25c-15.61,25-37.12,37.76-61.19,36.05-29.19-2.07-44.6-19.27-55.4-39.87"/></g><g id="レイヤー_3" data-name="レイヤー 3"><path class="cls-3" d="M242.26,103.53c2.9-2.49,14.06-11.83,17.27-9.35,3.91,3-6.31,21.88-7.43,23.92"/><path class="cls-4" d="M241.26,100.74a7.43,7.43,0,0,0-9.44-2.14,90.36,90.36,0,0,0-9.11,5.49c-6.26,4.29-25.81,18.1-33.39,43.14a70.73,70.73,0,0,0-2.07,8.85,7.41,7.41,0,0,0,4.57,8.1l49.88,19.95a7.34,7.34,0,0,0,6.62-.56,63.95,63.95,0,0,0,26.23-32.08,7.44,7.44,0,0,0-1-7Z"/><path class="cls-5" d="M241.26,100.74a7.43,7.43,0,0,0-9.44-2.14,90.36,90.36,0,0,0-9.11,5.49c-6.26,4.29-25.81,18.1-33.39,43.14a70.73,70.73,0,0,0-2.07,8.85,7.41,7.41,0,0,0,4.57,8.1l49.88,19.95a7.34,7.34,0,0,0,6.62-.56,63.95,63.95,0,0,0,26.23-32.08,7.44,7.44,0,0,0-1-7Z"/><path class="cls-6" d="M226.27,106.89c-6,5.33-23.44,17.24-32.93,40.71-2.14,5.3-4.6,11.38-2.89,12.51,3.12,2.06,18.17-13.72,28.1-26.53,9.48-12.23,20.44-29.69,17.87-32C235.16,100.49,230.7,102.94,226.27,106.89Z"/><g id="レイヤー_4" data-name="レイヤー 4"><path class="cls-7" d="M214.57,135.91a39,39,0,0,0-31.5,1.4c-9.72,4.87-16.81,13.95-18.47,23.65a10.41,10.41,0,0,0,.55,6.54c1.41,2.76,2.37,3.1,5.8,3.37,4.46.36,8.69-1.91,12.46-4.29s15.88-13.68,18.9-16.81c7-7.26,5.68-6.31,12.26-13.86"/><path class="cls-6" d="M214.9,134.71a40.05,40.05,0,0,0-39.17,5.86,35,35,0,0,0-11.3,16c-1.45,4.37-2.67,11.18,1.76,14.36,4.23,3.05,10.91.64,14.94-1.49,4.48-2.38,8.23-5.85,12-9.21a259.86,259.86,0,0,0,22.36-23.38c1-1.22-.72-3-1.77-1.77-4.9,5.65-9.62,11.38-15,16.58-5.9,5.67-12.11,12.38-19.56,16-3.21,1.57-8,3.32-11.27,1-3.54-2.51-2.17-7.92-1-11.46a32.34,32.34,0,0,1,10.55-14.72c10.3-8.29,24.62-10.06,36.85-5.34,1.5.58,2.15-1.84.66-2.41Z"/></g><g id="レイヤー_5" data-name="レイヤー 5"><path class="cls-8" d="M234.78,140.26c6.25-4.61,15.3-17.63,19-25.32"/><path class="cls-9" d="M232.27,138.82c6.73-4.75,16-18.47,20-26.38"/></g></g><g id="レイヤー_9" data-name="レイヤー 9"><path class="cls-10" d="M98.51,187a5.45,5.45,0,0,1-3.85-1.59L59.34,150.06a5.44,5.44,0,0,1,0-7.69l4.39-4.4a5.46,5.46,0,0,1,7.7,0l35.32,35.33a5.44,5.44,0,0,1,0,7.69l-4.39,4.4A5.45,5.45,0,0,1,98.51,187Z"/><path class="cls-6" d="M67.58,137.88A3.93,3.93,0,0,1,70.37,139l35.32,35.33a3.94,3.94,0,0,1,0,5.57l-4.39,4.4a4,4,0,0,1-5.58,0L60.4,149a3.94,3.94,0,0,1,0-5.57l4.39-4.4a3.93,3.93,0,0,1,2.79-1.15m0-3a6.91,6.91,0,0,0-4.91,2l-4.39,4.4a6.94,6.94,0,0,0,0,9.81L93.6,186.45a7,7,0,0,0,9.82,0l4.39-4.4a6.92,6.92,0,0,0,0-9.81L72.49,136.91a6.91,6.91,0,0,0-4.91-2Z"/><line class="cls-11" x1="48.72" y1="130.57" x2="59.23" y2="141.32"/><line class="cls-11" x1="51.98" y1="126.57" x2="62.48" y2="137.32"/><path class="cls-4" d="M51.59,142.4a14.73,14.73,0,0,1-10.24-4.57,29.41,29.41,0,0,1-6.74-11.26A33.41,33.41,0,0,1,33,118.79c-.3-3.36-.11-8.65,1.27-9.32A6.14,6.14,0,0,1,37,109a26.92,26.92,0,0,1,6,1,32.84,32.84,0,0,1,8.31,3.2A35.83,35.83,0,0,1,60.8,122c4.76,6.82,2.47,14.35-2.1,18a11.36,11.36,0,0,1-7.11,2.49Z"/><path class="cls-6" d="M37,110a26.93,26.93,0,0,1,5.78.92,31.79,31.79,0,0,1,8.05,3.1A35,35,0,0,1,60,122.52c3.55,5.08,3.4,12.42-1.89,16.61a10.3,10.3,0,0,1-6.49,2.27,13.66,13.66,0,0,1-9.52-4.27,28.52,28.52,0,0,1-6.5-10.85A32.37,32.37,0,0,1,34,118.7c-.44-4.84.32-8.14.71-8.33A5.2,5.2,0,0,1,37,110m0-2a7.06,7.06,0,0,0-3.12.62c-.84.41-1.44,1.22-1.78,4a29.41,29.41,0,0,0,0,6.34,34.8,34.8,0,0,0,1.65,8,30.52,30.52,0,0,0,7,11.67,15.73,15.73,0,0,0,11,4.87,12.35,12.35,0,0,0,7.73-2.7c5.79-4.59,6.78-12.9,2.3-19.32a37,37,0,0,0-9.86-9.16,34.08,34.08,0,0,0-8.57-3.29A27.75,27.75,0,0,0,37,108Z"/><path class="cls-12" d="M35.11,110.84c3.15,4,7.37,9.11,7.37,9.11"/><ellipse class="cls-7" cx="41.57" cy="118.88" rx="1.88" ry="1.92"/><line class="cls-13" x1="52.25" y1="130.28" x2="62.76" y2="141.03"/><path class="cls-14" d="M33,81.46c-7.89,8.21-10.32,11.74-9,13.42,2,2.58,13.89.42,16.88,3.5,2.35,2.43-2.44,6.7-5,11.26"/></g></svg>