<svg xmlns="http://www.w3.org/2000/svg" viewBox="0 0 283.46 283.46"><defs><style>.cls-1{fill:#fdd333;stroke:#fdd333;stroke-width:3px;}.cls-1,.cls-2,.cls-3,.cls-4{stroke-miterlimit:10;}.cls-2{fill:none;stroke-width:2.63px;}.cls-2,.cls-3{stroke:#afafaf;}.cls-3,.cls-4{font-size:18.93px;font-family:HiraMaruProN-W4-83pv-RKSJ-H, Hiragino Maru Gothic ProN;}.cls-3{fill:#afafaf;stroke-width:0.75px;}.cls-4{fill:#231815;stroke:#000;stroke-width:0.5px;}</style></defs><title>alter</title><g id="レイヤー_12" data-name="レイヤー 12"><rect class="cls-1" x="99.72" y="104.27" width="82.19" height="57.57"/><path class="cls-2" d="M28.86,104.27H99.72a0,0,0,0,1,0,0v57.57a0,0,0,0,1,0,0H28.86A11.34,11.34,0,0,1,17.52,150.5V115.61A11.34,11.34,0,0,1,28.86,104.27Z"/><path class="cls-2" d="M193.39,104.27h70.86a0,0,0,0,1,0,0v57.57a0,0,0,0,1,0,0H193.39A11.34,11.34,0,0,1,182,150.5V115.61A11.34,11.34,0,0,1,193.39,104.27Z" transform="translate(446.29 266.11) rotate(180)"/><text class="cls-3" transform="translate(42.01 139.43)">未完</text><text class="cls-4" transform="translate(123.53 139.43)">開始</text><text class="cls-3" transform="translate(202.99 139.43)">完了</text></g></svg>